<svg xmlns="http://www.w3.org/2000/svg" width="24" height="24" viewBox="0 0 24 24" fill="none">
  <circle cx="12" cy="12" r="10" fill="#25d366"/>
  <path d="M17 14.5c-.3-.15-1.7-.85-2-1-.3-.1-.5-.15-.7.15-.2.3-.75.95-.9 1.15-.15.2-.35.2-.65.05-.3-.15-1.3-.5-2.5-1.5-.9-.8-1.5-1.8-1.7-2.1-.15-.3 0-.45.15-.6.1-.1.3-.3.45-.45.15-.15.2-.25.3-.4.1-.2.05-.35 0-.5-.05-.15-.7-1.7-.95-2.3-.25-.6-.5-.5-.7-.5h-.6c-.2 0-.5.05-.8.4-.25.3-1 1-1 2.4s1 2.8 1.15 3c.15.2 2 3.1 4.9 4.35.7.3 1.25.5 1.65.65.7.2 1.35.2 1.85.1.55-.1 1.7-.7 1.95-1.4.25-.65.25-1.25.15-1.35-.05-.15-.25-.25-.55-.4z" fill="white"/>
</svg>
